<svg xmlns="http://www.w3.org/2000/svg" viewBox="0 0 52 52" fill="none">
  <defs>
    <linearGradient id="claw-red" x1="0%" y1="0%" x2="100%" y2="100%">
      <stop offset="0%" stop-color="#FF6B6B"/>
      <stop offset="100%" stop-color="#E63946"/>
    </linearGradient>
  </defs>
  <circle cx="26" cy="26" r="18" fill="url(#claw-red)" stroke="#94a3b8" stroke-width="1.2"/>
  <path d="M13 30 L10 31 L7 32 L5 34 L6 34 L9 33 L12 31 L13 30 Z" fill="url(#claw-red)" stroke="#94a3b8" stroke-width="1" stroke-linejoin="round"/>
  <path d="M13 31 L10 33 L7 35 L5 38 L6 38 L9 36 L12 33 L13 31 Z" fill="url(#claw-red)" stroke="#94a3b8" stroke-width="1" stroke-linejoin="round"/>
  <path d="M39 30 L42 31 L45 32 L47 34 L46 34 L43 33 L40 31 L39 30 Z" fill="url(#claw-red)" stroke="#94a3b8" stroke-width="1" stroke-linejoin="round"/>
  <path d="M39 31 L42 33 L45 35 L47 38 L46 38 L43 36 L40 33 L39 31 Z" fill="url(#claw-red)" stroke="#94a3b8" stroke-width="1" stroke-linejoin="round"/>
  <path d="M17 11c-4-3-8-1-8 4" stroke="url(#claw-red)" stroke-width="1" stroke-linecap="round" fill="none"/>
  <path d="M35 11c4-3 8-1 8 4" stroke="url(#claw-red)" stroke-width="1" stroke-linecap="round" fill="none"/>
  <circle cx="21" cy="22" r="2.5" fill="#475569"/>
  <circle cx="31" cy="22" r="2.5" fill="#475569"/>
  <circle cx="21.5" cy="21.2" r="0.7" fill="white"/>
  <circle cx="31.5" cy="21.2" r="0.7" fill="white"/>
</svg>
